<svg viewBox="-36 -257.7376490630324 405 763.7376490630324" width="405" height="763.7376490630324" version="1.1" baseProfile="full" xmlns="http://www.w3.org/2000/svg" class="js-draw--autoresize"><style id="js-draw-style-sheet">path{stroke-linecap:round;stroke-linejoin:round;}text{white-space:pre;}</style><g class="js-draw-image-background js-draw-image-background-grid js-draw-image-background-grid-25"><path d="M369,506l0-763.7376490630324l-405,0l0,763.7376490630324l405,0" fill="#ffffff"></path><path d="M-36.35,-250l405.7,0m-405.7,25l405.7,0m-405.7,25l405.7,0m-405.7,25l405.7,0m-405.7,25l405.7,0m-405.7,25l405.7,0m-405.7,25l405.7,0m-405.7,25l405.7,0m-405.7,25l405.7,0m-405.7,25l405.7,0m-405.7,25l405.7,0m-405.7,25l405.7,0m-405.7,25l405.7,0m-405.7,25l405.7,0m-405.7,25l405.7,0m-405.7,25l405.7,0m-405.7,25l405.7,0m-405.7,25l405.7,0m-405.7,25l405.7,0m-405.7,25l405.7,0m-405.7,25l405.7,0m-405.7,25l405.7,0m-405.7,25l405.7,0m-405.7,25l405.7,0m-405.7,25l405.7,0m-405.7,25l405.7,0m-405.7,25l405.7,0m-405.7,25l405.7,0m-405.7,25l405.7,0m-405.7,25l405.7,0m-405.7,25l405.7,0m-394.35-758.0876490630324l0,764.4376490630325m25-764.4376490630325l0,764.4376490630325m25-764.4376490630325l0,764.4376490630325m25-764.4376490630325l0,764.4376490630325m25-764.4376490630325l0,764.4376490630325m25-764.4376490630325l0,764.4376490630325m25-764.4376490630325l0,764.4376490630325m25-764.4376490630325l0,764.4376490630325m25-764.4376490630325l0,764.4376490630325m25-764.4376490630325l0,764.4376490630325m25-764.4376490630325l0,764.4376490630325m25-764.4376490630325l0,764.4376490630325m25-764.4376490630325l0,764.4376490630325m25-764.4376490630325l0,764.4376490630325m25-764.4376490630325l0,764.4376490630325m25-764.4376490630325l0,764.4376490630325" fill="none" stroke="#00000033" stroke-width=".7"></path></g><path d="M25,-201l-4,2l227,377l4-2l-227-377" fill="#0000ff"></path><path d="M27,-104q28-1 39-5q7-2 8-3" fill="none" stroke="#000000" stroke-width="4"></path><text data-highp-transform="matrix(1.3798977853492334,0,0,1.3798977853492334,20,-17)" style="transform: matrix(1.3799, 0, 0, 1.3799, 20, -17); font-family: sans-serif; font-size: 20px; fill: rgb(0, 0, 0);">theta_1</text><path d="M252,177q.4,.4 0,.4q-.4,0 -.4-.4q0-.4 .4-.4q.4,0 .4,.4" fill="none" stroke="#000000" stroke-width="4"></path><path d="M252,177q.4,.4 0,.4q-.4,0 -.4-.4q0-.4 .4-.4q.4,0 .4,.4" fill="none" stroke="#000000" stroke-width="4"></path><path d="M252,177q.4,.4 0,.4q-.4,0 -.4-.4q0-.4 .4-.4q.4,0 .4,.4" fill="none" stroke="#000000" stroke-width="4"></path><path d="M252,177l-2-2l-202,249l2,2l202-249" fill="#0000ff"></path><text data-highp-transform="matrix(1.3798977853492334,0,0,1.3798977853492334,196,293)" style="transform: matrix(1.3799, 0, 0, 1.3799, 196, 293); font-family: sans-serif; font-size: 20px; fill: rgb(0, 0, 0);">theta_2</text><text data-highp-transform="matrix(1.3798977853492334,0,0,1.3798977853492334,91,291)" style="transform: matrix(1.3799, 0, 0, 1.3799, 91, 291); font-family: sans-serif; font-size: 20px; fill: rgb(0, 0, 0);">ell_2</text><path d="M220,218q35,3 51,1q12-4 21-9q2-1 0-4" fill="none" stroke="#000000" stroke-width="4"></path><path d="M220,217q11-8 10-7q-3,3 -5,5q-5,6 1,9q2,2 3,4q1,1 2,1" fill="none" stroke="#000000" stroke-width="4"></path><path d="M73,-110q-1,14 -4,16q-1,2 -1,3" fill="none" stroke="#000000" stroke-width="4"></path><path d="M72,-111q-19-2 -18-4q1-3 1-3" fill="none" stroke="#000000" stroke-width="4"></path><path d="M24,-203q0,32 0,33" fill="none" stroke="#000000" stroke-width="4"></path><path d="M26,-150q-2,23 0,25" fill="none" stroke="#000000" stroke-width="4"></path><text data-highp-transform="matrix(1.3798977853492334,0,0,1.3798977853492334,-25,-226)" style="transform: matrix(1.3799, 0, 0, 1.3799, -25, -226); font-family: sans-serif; font-size: 32px; fill: rgb(0, 0, 0);">(0,0)</text><path d="M26,-106q0,10 0,18" fill="none" stroke="#000000" stroke-width="4"></path><path d="M23,-72q0,10 0,18" fill="none" stroke="#000000" stroke-width="4"></path><path d="M24,-4Q24,5 24,12" fill="none" stroke="#000000" stroke-width="4"></path><path d="M24,34q-1,14 -1,25" fill="none" stroke="#000000" stroke-width="4"></path><path d="M26,74q0,15 0,27" fill="none" stroke="#000000" stroke-width="4"></path><path d="M253,178q8,5 10,9q-1,1 -1,2" fill="none" stroke="#000000" stroke-width="4"></path><path d="M272,197q7,11 7,12q1,3 4,4q0,0 2,0" fill="none" stroke="#000000" stroke-width="4"></path><path d="M293,222q9,4 11,10q4,6 8,11" fill="none" stroke="#000000" stroke-width="4"></path><path d="M321,248q8,8 14,15" fill="none" stroke="#000000" stroke-width="4"></path><path d="M343,268q4,4 8,8" fill="none" stroke="#000000" stroke-width="4"></path><path d="M360,288q7,8 7,9" fill="none" stroke="#000000" stroke-width="4"></path><path d="M27,100q3-5 6-9" fill="none" stroke="#000000" stroke-width="4"></path><path d="M26,100q-6-6 -10-11" fill="none" stroke="#000000" stroke-width="4"></path><text data-highp-transform="matrix(1.3798977853492334,0,0,1.3798977853492334,22,130)" style="transform: matrix(1.3799, 0, 0, 1.3799, 22, 130); font-family: sans-serif; font-size: 20px; fill: rgb(0, 0, 0);">x</text><path d="M27,-202q12-3 16-1q1,0 1,0" fill="none" stroke="#000000" stroke-width="4"></path><path d="M57,-202q16,0 19,0" fill="none" stroke="#000000" stroke-width="4"></path><path d="M92,-200q24,0 26,0" fill="none" stroke="#000000" stroke-width="4"></path><path d="M136,-200q11,0 20,1" fill="none" stroke="#000000" stroke-width="4"></path><path d="M182,-200q11,0 19,0" fill="none" stroke="#000000" stroke-width="4"></path><path d="M220,-202q10,1 19,1" fill="none" stroke="#000000" stroke-width="4"></path><path d="M260,-202q11,0 20,0" fill="none" stroke="#000000" stroke-width="4"></path><path d="M299,-202q14,0 26,0" fill="none" stroke="#000000" stroke-width="4"></path><text data-highp-transform="matrix(1.3798977853492334,0,0,1.3798977853492334,340,-196)" style="transform: matrix(1.3799, 0, 0, 1.3799, 340, -196); font-family: sans-serif; font-size: 20px; fill: rgb(0, 0, 0);">y</text><path d="M326,-206q-12-5 -9-4" fill="none" stroke="#000000" stroke-width="4"></path><path d="M326,-203q-6,4 -10,8" fill="none" stroke="#000000" stroke-width="4"></path><path d="M48,420q-20-25 -31-27q-7-2 -12-3q-9-2 -14,10q-4,9 -14,20q-11,12 -10,15q6,6 11,10q1,0 1,0" fill="none" stroke="#0000ff" stroke-width="4"></path><path d="M53,423q17,12 34,27q10,9 8,25q0,2 -11,10q-9,6 -16,11q-6,4 -10,7q-2,1 -15,0q-6-1 -8-7q-1-2 -3-4" fill="none" stroke="#0000ff" stroke-width="4"></path><text data-highp-transform="matrix(1.3798977853492334,0,0,1.3798977853492334,85,422)" style="transform: matrix(1.3799, 0, 0, 1.3799, 85, 422); font-family: sans-serif; font-size: 20px; fill: rgb(0, 0, 0);">(x_e, y_e)</text><path d="M45.775,420.15q0,3.1875 3.1875,5.1q2.55,1.275 5.7375,0q2.55-1.9125 2.55-5.1q0-3.1875 -2.55-5.1q-3.1875-1.275 -5.7375,0q-3.1875,1.9125 -3.1875,5.1" fill="none" stroke="#0000ff" stroke-width="16.575"></path><text data-highp-transform="matrix(1.3798977853492334,0,0,1.3798977853492334,154,9)" style="transform: matrix(1.3799, 0, 0, 1.3799, 154, 9); font-family: sans-serif; font-size: 20px; fill: rgb(0, 0, 0);">ell_1</text></svg>